# xmcd
#
# Track frame offsets: 
#        150
#        24212
#        40995
#        60634
#        77591
#        99470
#        116834
#        134214
#        148275
#        163870
#        182689
#        198713
#        214714
#        235335
#
# Disc length: 3368 seconds
#
# Revision: 9
# Processed by: cddbd v1.5.2PL0 Copyright (c) Steve Scherf et al.
# Submitted via: ExactAudioCopy v0.99pb5
#
DISCID=d10d260e
DTITLE=BANDARI 班得瑞乐团 - Breezy Valley 微风山谷 (安徽音像出版社发行
DTITLE=内地版)
DYEAR=2003
DGENRE=New Age
TTITLE0=寂静的雪 Snow
TTITLE1=天使群聚之歌 Song of the angles
TTITLE2=狂热夏日 Indian Summer
TTITLE3=火星金星 Mars and Venus
TTITLE4=梦于月光中 Dreaming in the moonlight
TTITLE5=一生爱恋 Love of my life
TTITLE6=落日幽谷 Sunset Valley
TTITLE7=今夜爱来临 Love me tonight
TTITLE8=再一次爱 If i love again
TTITLE9=人间天上 Heaven on earth
TTITLE10=春枝绿叶 Green leaves of spring
TTITLE11=日出晨安 Good morning sunshine
TTITLE12=微风吹拂的方式 The way of the wind
TTITLE13=唯心所识 For your heart only
EXTD=YEAR: 2003
EXTT0=
EXTT1=
EXTT2=
EXTT3=
EXTT4=
EXTT5=
EXTT6=
EXTT7=
EXTT8=
EXTT9=
EXTT10=
EXTT11=
EXTT12=
EXTT13=
PLAYORDER=
